<svg width="40" height="40" viewBox="0 0 40 40" xmlns="http://www.w3.org/2000/svg" xmlns:sketch="http://www.bohemiancoding.com/sketch/ns"><title>Tupiq</title><desc>Created with Sketch.</desc><path d="M26.07 19.997l.623 1.337h-12.869l.622-1.333h11.559l.064-.003zm-.62-1.33l-5.191-11.132-5.191 11.132h10.382zm1.865 4l7.365 15.795h-9.411l-4.05-8.685c-.028-.254-.185-.488-.437-.605-.111-.052-.228-.075-.343-.073-.115-.003-.232.021-.343.073-.252.117-.409.351-.437.605l-4.05 8.685h-9.771l7.365-15.795h14.112zm-10.025 15.795l3.149-6.752 3.149 6.752h-6.297zm-13.134 0l15.262-32.729-2.044-4.383c-.176-.378-.012-.827.372-1.006.381-.178.838-.005 1.009.362l1.504 3.225 1.512-3.243c.171-.367.628-.54 1.009-.362.384.179.548.628.372 1.006l-2.052 4.401 15.262 32.729h2.875c.418 0 .763.344.763.769 0 .428-.342.769-.763.769h-38.473c-.418 0-.763-.344-.763-.769 0-.428.342-.769.763-.769h3.393z" sketch:type="MSShapeGroup" fill="#333"/></svg>