<?xml version="1.0" encoding="UTF-8" standalone="no"?>
<svg width="101px" height="121px" viewBox="0 0 101 121" version="1.1" xmlns="http://www.w3.org/2000/svg" xmlns:xlink="http://www.w3.org/1999/xlink" xmlns:sketch="http://www.bohemiancoding.com/sketch/ns">
    <!-- Generator: Sketch 3.2.2 (9983) - http://www.bohemiancoding.com/sketch -->
    <title>tupiq 2</title>
    <desc>Created with Sketch.</desc>
    <defs></defs>
    <g id="Page-1" stroke="none" stroke-width="1" fill="none" fill-rule="evenodd" sketch:type="MSPage">
        <g id="tupiq" sketch:type="MSLayerGroup" fill="#000000">
            <g id="Page-1" sketch:type="MSShapeGroup">
                <g id="tupiq">
                    <g id="Page-1">
                        <g id="Artboard-1">
                            <path d="M64.01716,6.1181 C65.04263,4.07852 64.22226,1.5915 62.18679,0.563 C60.15133,-0.46551 57.6631,0.35574 56.63763,2.39727 L50.09589,15.38823 L43.54835,2.32754 C42.52481,0.28602 40.04239,-0.53718 38.00112,0.48552 C35.96179,1.51015 35.13948,3.99717 36.16301,6.04062 L45.46579,24.59444 L0.44175,114.04558 C-0.20256,115.32782 -0.13677,116.85606 0.61395,118.07826 C1.36467,119.30046 2.69779,120.04617 4.13151,120.04617 L95.87065,120.04617 C97.30438,120.04617 98.63556,119.30046 99.38822,118.08213 C100.13701,116.85412 100.20473,115.33363 99.56235,114.05139 L54.71245,24.59832 L64.01716,6.1181 Z M50.08041,33.80259 L68.24869,70.03861 L61.11101,74.24949 L51.86241,68.40384 C50.49254,67.53804 48.74343,67.54966 47.38903,68.44258 L38.61641,74.20494 L31.81927,70.08509 L50.08041,33.80259 L50.08041,33.80259 Z M44.54093,111.76969 L49.65475,100.44254 L54.76856,111.76969 L44.54093,111.76969 L44.54093,111.76969 Z M63.83916,111.76969 L53.41804,88.69702 C52.74858,87.21334 51.28002,86.26424 49.65475,86.26424 C48.0314,86.26424 46.55705,87.21334 45.88952,88.69702 L35.47034,111.76969 L10.83965,111.76969 L28.08887,77.49578 L36.56353,82.6325 C37.22138,83.02957 37.96436,83.23101 38.70348,83.23101 C39.49483,83.23101 40.28425,83.00439 40.97112,82.55309 L49.69925,76.82172 L58.83176,82.59377 C60.13972,83.4189 61.79982,83.44214 63.13487,82.65768 L71.96554,77.44929 L89.17413,111.76969 L63.83916,111.76969 L63.83916,111.76969 Z" id="Tupiq"></path>
                        </g>
                    </g>
                </g>
            </g>
        </g>
    </g>
</svg>