<?xml version="1.0" encoding="UTF-8" standalone="no"?>
<svg width="41px" height="40px" viewBox="0 0 41 40" version="1.1" xmlns="http://www.w3.org/2000/svg" xmlns:xlink="http://www.w3.org/1999/xlink" xmlns:sketch="http://www.bohemiancoding.com/sketch/ns">
    <!-- Generator: Sketch 3.3.2 (12043) - http://www.bohemiancoding.com/sketch -->
    <title>tupiq</title>
    <desc>Created with Sketch.</desc>
    <defs></defs>
    <g id="Page-1" stroke="none" stroke-width="1" fill="none" fill-rule="evenodd" sketch:type="MSPage">
        <g id="logo" sketch:type="MSArtboardGroup" transform="translate(-10.000000, -9.747617)" fill="#000000">
            <path d="M44.1812074,47.9544937 L36.8159378,32.1596219 L36.8159378,32.1596219 L24.1840622,32.1596219 L16.8187926,47.9544937 L25.7829204,47.9544937 C25.7889232,47.8675632 25.8107508,47.7802555 25.8497853,47.6965458 L29.8215301,39.1791115 C29.9443562,38.91571 30.2175005,38.7560306 30.5,38.7604728 L30.5,38.7604728 C30.7824995,38.7560306 31.0556438,38.91571 31.1784699,39.1791115 L35.1502147,47.6965458 C35.1892492,47.7802555 35.2110768,47.8675632 35.2170796,47.9544937 L44.1812074,47.9544937 L44.1812074,47.9544937 Z M45.3077919,49.4929553 C45.3458677,49.4959735 45.3843456,49.4960114 45.4228846,49.4929553 L50.2355734,49.4929553 C50.6577546,49.4929553 51,49.1515208 51,48.7237245 C51,48.2988901 50.6578674,47.9544937 50.2355734,47.9544937 L45.798805,47.9544937 L31.3087988,16.8805751 L34.029635,11.045723 C34.2013058,10.6775737 34.0455943,10.2416258 33.6761302,10.0693419 C33.3092241,9.89825071 32.8746175,10.0537167 32.7009504,10.4261471 L30.5,15.1461004 L30.5,15.1461004 L28.2990496,10.4261471 C28.1253825,10.0537167 27.6907759,9.89825071 27.3238698,10.0693419 C26.9544057,10.2416258 26.7986942,10.6775737 26.970365,11.045723 L29.6912012,16.8805751 L15.201195,47.9544937 L10.7644266,47.9544937 C10.3422454,47.9544937 10,48.2959282 10,48.7237245 C10,49.1485589 10.3421326,49.4929553 10.7644266,49.4929553 L15.5771154,49.4929553 C15.6156544,49.4960114 15.6541323,49.4959735 15.6922081,49.4929553 L45.3077917,49.4929553 L45.3077919,49.4929553 Z M27.3470998,47.9544937 L30.5,41.1930774 L33.6529002,47.9544937 L27.3470998,47.9544937 L27.3470998,47.9544937 Z M36.1941942,30.8262886 L35.5724507,29.4929553 L25.4275493,29.4929553 L24.8058058,30.8262886 L36.1941942,30.8262886 L36.1941942,30.8262886 L36.1941942,30.8262886 Z M34.9507071,28.1596219 L30.5,18.6150497 L26.0492929,28.1596219 L34.9507071,28.1596219 L34.9507071,28.1596219 Z" id="tupiq" sketch:type="MSShapeGroup"></path>
        </g>
    </g>
</svg>