<?xml version="1.0" encoding="UTF-8" standalone="no"?>
<svg width="40px" height="40px" viewBox="0 0 40 40" version="1.1" xmlns="http://www.w3.org/2000/svg" xmlns:xlink="http://www.w3.org/1999/xlink" xmlns:sketch="http://www.bohemiancoding.com/sketch/ns">
    <!-- Generator: Sketch 3.2.2 (9983) - http://www.bohemiancoding.com/sketch -->
    <title>Shape</title>
    <desc>Created with Sketch.</desc>
    <defs></defs>
    <g id="Page-1" stroke="none" stroke-width="1" fill="none" fill-rule="evenodd" sketch:type="MSPage">
        <g id="tupiq-v2" sketch:type="MSLayerGroup" fill="#333333">
            <path d="M26.07,19.997 L26.693,21.334 L13.824,21.334 L14.446,20.001 L26.005,20.001 L26.069,19.998 L26.07,19.997 Z M25.45,18.667 L20.259,7.535 L15.068,18.667 L25.45,18.667 L25.45,18.667 Z M27.315,22.667 L34.68,38.462 L25.269,38.462 L21.219,29.777 C21.191,29.523 21.034,29.289 20.782,29.172 C20.671,29.12 20.554,29.097 20.439,29.099 C20.324,29.096 20.207,29.12 20.096,29.172 C19.844,29.289 19.687,29.523 19.659,29.777 L15.609,38.462 L5.838,38.462 L13.203,22.667 L27.315,22.667 L27.315,22.667 Z M17.29,38.462 L20.439,31.71 L23.588,38.462 L17.291,38.462 L17.29,38.462 Z M4.156,38.462 L19.418,5.733 L17.374,1.35 C17.198,0.972 17.362,0.523 17.746,0.344 C18.127,0.166 18.584,0.339 18.755,0.706 L20.259,3.931 L21.771,0.688 C21.942,0.321 22.399,0.148 22.78,0.326 C23.164,0.505 23.328,0.954 23.152,1.332 L21.1,5.733 L36.362,38.462 L39.237,38.462 C39.655,38.462 40,38.806 40,39.231 C40,39.659 39.658,40 39.237,40 L0.764,40 C0.346,40 0.001,39.656 0.001,39.231 C0.001,38.803 0.343,38.462 0.764,38.462 L4.157,38.462 L4.156,38.462 Z" id="Shape" sketch:type="MSShapeGroup"></path>
        </g>
    </g>
</svg>