<?xml version="1.0" encoding="UTF-8" standalone="no"?>
<svg width="41px" height="40px" viewBox="0 0 41 40" version="1.1" xmlns="http://www.w3.org/2000/svg" xmlns:xlink="http://www.w3.org/1999/xlink" xmlns:sketch="http://www.bohemiancoding.com/sketch/ns">
    <!-- Generator: Sketch 3.3.2 (12043) - http://www.bohemiancoding.com/sketch -->
    <title>tupiq</title>
    <desc>Created with Sketch.</desc>
    <defs></defs>
    <g id="Page-1" stroke="none" stroke-width="1" fill="none" fill-rule="evenodd" sketch:type="MSPage">
        <g id="tupiq-logo" sketch:type="MSLayerGroup" fill="#455A64">
            <g id="Page-1" sketch:type="MSShapeGroup">
                <g id="logo" transform="translate(0.000000, 0.252383)">
                    <path d="M34.1812074,37.9544937 L26.8159378,22.1596219 L14.1840622,22.1596219 L6.8187926,37.9544937 L15.7829204,37.9544937 C15.7889232,37.8675632 15.8107508,37.7802555 15.8497853,37.6965458 L19.8215301,29.1791115 C19.9443562,28.91571 20.2175005,28.7560306 20.5,28.7604728 L20.5,28.7604728 C20.7824995,28.7560306 21.0556438,28.91571 21.1784699,29.1791115 L25.1502147,37.6965458 C25.1892492,37.7802555 25.2110768,37.8675632 25.2170796,37.9544937 L34.1812074,37.9544937 L34.1812074,37.9544937 Z M35.3077919,39.4929553 C35.3458677,39.4959735 35.3843456,39.4960114 35.4228846,39.4929553 L40.2355734,39.4929553 C40.6577546,39.4929553 41,39.1515208 41,38.7237245 C41,38.2988901 40.6578674,37.9544937 40.2355734,37.9544937 L35.798805,37.9544937 L21.3087988,6.8805751 L24.029635,1.045723 C24.2013058,0.6775737 24.0455943,0.2416258 23.6761302,0.0693419 C23.3092241,-0.10174929 22.8746175,0.0537167 22.7009504,0.4261471 L20.5,5.1461004 L18.2990496,0.4261471 C18.1253825,0.0537167 17.6907759,-0.10174929 17.3238698,0.0693419 C16.9544057,0.2416258 16.7986942,0.6775737 16.970365,1.045723 L19.6912012,6.8805751 L5.201195,37.9544937 L0.7644266,37.9544937 C0.3422454,37.9544937 0,38.2959282 0,38.7237245 C0,39.1485589 0.3421326,39.4929553 0.7644266,39.4929553 L5.5771154,39.4929553 C5.6156544,39.4960114 5.6541323,39.4959735 5.6922081,39.4929553 L35.3077917,39.4929553 L35.3077919,39.4929553 L35.3077919,39.4929553 Z M17.3470998,37.9544937 L20.5,31.1930774 L23.6529002,37.9544937 L17.3470998,37.9544937 L17.3470998,37.9544937 Z M26.1941942,20.8262886 L25.5724507,19.4929553 L15.4275493,19.4929553 L14.8058058,20.8262886 L26.1941942,20.8262886 L26.1941942,20.8262886 Z M24.9507071,18.1596219 L20.5,8.6150497 L16.0492929,18.1596219 L24.9507071,18.1596219 L24.9507071,18.1596219 Z" id="tupiq"></path>
                </g>
            </g>
        </g>
    </g>
</svg>